<?xml version="1.0" encoding="UTF-8"?>
<svg id="Layer_1" data-name="Layer 1" xmlns="http://www.w3.org/2000/svg" xmlns:xlink="http://www.w3.org/1999/xlink" viewBox="0 0 366.46 372.83">
  <defs>
    <style>
      .cls-1 {
        fill: url(#linear-gradient);
      }

      .cls-1, .cls-2, .cls-3, .cls-4 {
        stroke-width: 0px;
      }

      .cls-2 {
        fill: url(#linear-gradient-2);
      }

      .cls-3 {
        fill: url(#linear-gradient-3);
      }

      .cls-4 {
        fill: url(#linear-gradient-4);
      }
    </style>
    <linearGradient id="linear-gradient" x1="143.6" y1="186.42" x2="340.42" y2="186.42" gradientUnits="userSpaceOnUse">
      <stop offset="0" stop-color="#FFF" stop-opacity="1"/>
      <stop offset=".24" stop-color="#FFF" stop-opacity="1"/>
    </linearGradient>
    <linearGradient id="linear-gradient-2" x1="52.12" y1="172.4" x2="228.27" y2="172.4" gradientUnits="userSpaceOnUse">
      <stop offset=".11" stop-color="#FFF" stop-opacity="1"/>
      <stop offset=".33" stop-color="#FFF" stop-opacity="1"/>
    </linearGradient>
    <linearGradient id="linear-gradient-3" x1="-38.3" y1="326.92" x2="273.49" y2="326.92" gradientUnits="userSpaceOnUse">
      <stop offset=".13" stop-color="#FFF" stop-opacity="1"/>
      <stop offset=".25" stop-color="#FFF" stop-opacity="1"/>
    </linearGradient>
    <linearGradient id="linear-gradient-4" x1="54.54" y1="349.22" x2="101.53" y2="349.22" gradientUnits="userSpaceOnUse">
      <stop offset="0" stop-color="#FFF"/>
      <stop offset=".48" stop-color="#FFF"/>
    </linearGradient>
  </defs>
  <polygon class="cls-1" points="366.46 372.83 339.67 372.77 317.42 327.53 306.07 304.48 295.22 282.42 285.3 262.27 273.47 238.2 209.2 107.59 196.94 82.67 183.01 54.36 169.64 27.18 183.01 0 196.38 27.18 210.31 55.49 222.57 80.41 300.28 238.34 312.12 262.4 322.04 282.55 332.89 304.61 344.24 327.67 366.46 372.83"/>
  <polygon class="cls-2" points="257.38 262.12 232.79 262 133.48 261.49 109.02 261.36 81.23 261.22 93.01 237.28 156.82 107.59 169.08 82.68 183.01 110.99 170.75 135.9 120.8 237.42 145.26 237.55 220.95 237.94 183.01 160.82 195.27 135.9 245.54 238.06 257.38 262.12"/>
  <g>
    <polygon class="cls-3" points="311.79 372.7 287.24 372.64 264.9 327.26 253.56 304.21 112.81 303.48 88.36 303.36 60.56 303.22 49.28 326.15 26.71 372.02 0 371.95 22.6 326.02 33.88 303.08 44.68 281.13 71.36 281.27 99.16 281.41 123.61 281.54 242.71 282.15 267.29 282.27 278.14 304.33 289.49 327.39 311.79 372.7"/>
    <polygon class="cls-4" points="101.53 326.42 79.03 372.14 54.54 372.08 77.07 326.3 101.53 326.42"/>
  </g>
</svg>
